<svg width="122" height="119" viewBox="0 0 122 119" fill="none" xmlns="http://www.w3.org/2000/svg">
<g filter="url(#filter0_d_467_64)">
<mask id="path-1-inside-1_467_64" fill="white">
<path fill-rule="evenodd" clip-rule="evenodd" d="M69.9165 7.94183L74.8367 27.8343L88.7522 22.677L90.6076 31.1162H97.1015L101.74 42.8372L110.629 37.5129C112.973 43.0712 114.264 49.1502 114.264 55.5198C114.264 81.9445 92.0431 103.366 64.6321 103.366C37.221 103.366 15 81.9445 15 55.5198C15 29.0952 37.221 7.67383 64.6321 7.67383C66.4171 7.67383 68.1802 7.76467 69.9165 7.94183Z"/>
</mask>
<path fill-rule="evenodd" clip-rule="evenodd" d="M69.9165 7.94183L74.8367 27.8343L88.7522 22.677L90.6076 31.1162H97.1015L101.74 42.8372L110.629 37.5129C112.973 43.0712 114.264 49.1502 114.264 55.5198C114.264 81.9445 92.0431 103.366 64.6321 103.366C37.221 103.366 15 81.9445 15 55.5198C15 29.0952 37.221 7.67383 64.6321 7.67383C66.4171 7.67383 68.1802 7.76467 69.9165 7.94183Z" fill="#5B5B5B"/>
<path d="M74.8367 27.8343L71.9244 28.5546L72.7306 31.8142L75.8792 30.6473L74.8367 27.8343ZM69.9165 7.94183L72.8287 7.22152L72.3217 5.17165L70.221 4.95732L69.9165 7.94183ZM88.7522 22.677L91.6822 22.0328L90.942 18.666L87.7097 19.864L88.7522 22.677ZM90.6076 31.1162L87.6776 31.7603L88.1955 34.1162H90.6076V31.1162ZM97.1015 31.1162L99.891 30.0122L99.1407 28.1162H97.1015V31.1162ZM101.74 42.8372L98.9505 43.9412L100.251 47.2263L103.282 45.4109L101.74 42.8372ZM110.629 37.5129L113.394 36.3473L112.051 33.1641L109.088 34.9392L110.629 37.5129ZM77.7489 27.1139L72.8287 7.22152L67.0043 8.66213L71.9244 28.5546L77.7489 27.1139ZM87.7097 19.864L73.7941 25.0212L75.8792 30.6473L89.7947 25.49L87.7097 19.864ZM93.5376 30.472L91.6822 22.0328L85.8222 23.3212L87.6776 31.7603L93.5376 30.472ZM97.1015 28.1162H90.6076V34.1162H97.1015V28.1162ZM104.53 41.7333L99.891 30.0122L94.312 32.2201L98.9505 43.9412L104.53 41.7333ZM109.088 34.9392L100.198 40.2636L103.282 45.4109L112.171 40.0865L109.088 34.9392ZM107.865 38.6785C110.057 43.8763 111.264 49.5595 111.264 55.5198H117.264C117.264 48.7408 115.889 42.2661 113.394 36.3473L107.865 38.6785ZM111.264 55.5198C111.264 80.1849 90.4909 100.366 64.6321 100.366V106.366C93.5954 106.366 117.264 83.704 117.264 55.5198H111.264ZM64.6321 100.366C38.7733 100.366 18 80.1849 18 55.5198H12C12 83.704 35.6688 106.366 64.6321 106.366V100.366ZM18 55.5198C18 30.8548 38.7733 10.6738 64.6321 10.6738V4.67383C35.6688 4.67383 12 27.3357 12 55.5198H18ZM64.6321 10.6738C66.3153 10.6738 67.9767 10.7595 69.612 10.9263L70.221 4.95732C68.3836 4.76986 66.519 4.67383 64.6321 4.67383V10.6738Z" fill="black" mask="url(#path-1-inside-1_467_64)"/>
</g>
<ellipse cx="52.1078" cy="55.4967" rx="2.78311" ry="2.81306" fill="#BCBCBC"/>
<ellipse cx="78.0834" cy="55.4967" rx="2.78311" ry="2.81306" fill="#BCBCBC"/>
<path d="M76.228 74.25C72.7421 70.712 63.4089 65.7588 53.9632 74.25" stroke="#BCBCBC" stroke-width="3" stroke-linecap="round" stroke-linejoin="round"/>
<path d="M30.6415 45.2291C29.3949 44.8931 28.644 43.6016 29.0492 42.3731C30.8149 37.0196 33.7314 32.1162 37.6001 28.0207C41.4618 23.9325 46.1631 20.7651 51.3613 18.7343C52.5696 18.2622 53.8977 18.9629 54.2888 20.2105V20.2105C54.6759 21.4454 53.9977 22.75 52.8053 23.2265C48.3407 25.0106 44.3021 27.754 40.9742 31.277C37.6449 34.8014 35.1196 39.0082 33.563 43.6007C33.1491 44.8219 31.8844 45.5641 30.6415 45.2291V45.2291Z" fill="#C4C4C4" fill-opacity="0.4"/>
<defs>
<filter id="filter0_d_467_64" x="0" y="0.673828" width="121.264" height="117.692" filterUnits="userSpaceOnUse" color-interpolation-filters="sRGB">
<feFlood flood-opacity="0" result="BackgroundImageFix"/>
<feColorMatrix in="SourceAlpha" type="matrix" values="0 0 0 0 0 0 0 0 0 0 0 0 0 0 0 0 0 0 127 0" result="hardAlpha"/>
<feMorphology radius="3" operator="dilate" in="SourceAlpha" result="effect1_dropShadow_467_64"/>
<feOffset dx="-4" dy="4"/>
<feGaussianBlur stdDeviation="4"/>
<feComposite in2="hardAlpha" operator="out"/>
<feColorMatrix type="matrix" values="0 0 0 0 0.823529 0 0 0 0 0.705882 0 0 0 0 0.564706 0 0 0 0.25 0"/>
<feBlend mode="normal" in2="BackgroundImageFix" result="effect1_dropShadow_467_64"/>
<feBlend mode="normal" in="SourceGraphic" in2="effect1_dropShadow_467_64" result="shape"/>
</filter>
</defs>
</svg>
