<svg width="116" height="116" viewBox="0 0 116 116" fill="none" xmlns="http://www.w3.org/2000/svg">
<path d="M112 54C112 81.6142 89.6142 104 62 104C34.3858 104 12 81.6142 12 54C12 26.3858 34.3858 4 62 4C89.6142 4 112 26.3858 112 54Z" fill="white"/>
<g filter="url(#filter0_d_467_102)">
<path fill-rule="evenodd" clip-rule="evenodd" d="M62 101.196C88.0658 101.196 109.196 80.0658 109.196 54C109.196 27.9342 88.0658 6.80374 62 6.80374C35.9342 6.80374 14.8037 27.9342 14.8037 54C14.8037 80.0658 35.9342 101.196 62 101.196ZM62 104C89.6142 104 112 81.6142 112 54C112 26.3858 89.6142 4 62 4C34.3858 4 12 26.3858 12 54C12 81.6142 34.3858 104 62 104Z" fill="black"/>
</g>
<path d="M52.1866 51.127C52.1866 52.6754 50.9313 53.9307 49.3828 53.9307C47.8344 53.9307 46.5791 52.6754 46.5791 51.127C46.5791 49.5785 47.8344 48.3232 49.3828 48.3232C50.9313 48.3232 52.1866 49.5785 52.1866 51.127Z" fill="black"/>
<path d="M78.355 51.127C78.355 52.6754 77.0998 53.9307 75.5513 53.9307C74.0028 53.9307 72.7476 52.6754 72.7476 51.127C72.7476 49.5785 74.0028 48.3232 75.5513 48.3232C77.0998 48.3232 78.355 49.5785 78.355 51.127Z" fill="black"/>
<g filter="url(#filter1_f_467_102)">
<path d="M39.1031 63.7437C39.1031 67.0987 36.3834 69.8185 33.0284 69.8185C29.6734 69.8185 26.9536 67.0987 26.9536 63.7437C26.9536 60.3887 29.6734 57.6689 33.0284 57.6689C36.3834 57.6689 39.1031 60.3887 39.1031 63.7437Z" fill="#FFCACA"/>
</g>
<g filter="url(#filter2_f_467_102)">
<path d="M97.047 63.7437C97.047 67.0987 94.3272 69.8185 90.9722 69.8185C87.6172 69.8185 84.8975 67.0987 84.8975 63.7437C84.8975 60.3887 87.6172 57.6689 90.9722 57.6689C94.3272 57.6689 97.047 60.3887 97.047 63.7437Z" fill="#FFCACA"/>
</g>
<path fill-rule="evenodd" clip-rule="evenodd" d="M50.5119 65.4267C51.1692 65.0176 52.0337 65.2188 52.4428 65.8761C54.1073 68.5503 57.0791 71.5877 60.5537 72.4499C62.244 72.8693 64.0889 72.7867 66.058 71.8556C68.051 70.9132 70.2505 69.0625 72.5356 65.8109C72.9807 65.1774 73.8551 65.0248 74.4886 65.4699C75.122 65.9151 75.2747 66.7895 74.8295 67.4229C72.3567 70.9417 69.8126 73.1816 67.2565 74.3902C64.6766 75.6101 62.1673 75.739 59.8785 75.1711C55.3951 74.0586 51.9098 70.3256 50.0625 67.3577C49.6534 66.7004 49.8546 65.8359 50.5119 65.4267Z" fill="black"/>
<path d="M74.0149 23.7632C76.5399 25.5415 75.9418 29.441 72.9998 30.3807L59.0659 34.8314C56.4222 35.6758 53.8126 33.4467 54.2334 30.7035L56.208 17.8304C56.6288 15.0872 59.7866 13.7427 62.0556 15.3407L74.0149 23.7632Z" fill="#FFBDBD"/>
<path fill-rule="evenodd" clip-rule="evenodd" d="M58.4972 33.0508L72.4311 28.6001C73.9021 28.1303 74.2012 26.1805 72.9386 25.2914L60.9794 16.869C59.8448 16.0699 58.2659 16.7422 58.0556 18.1138L56.0809 30.9869C55.8705 32.3585 57.1754 33.473 58.4972 33.0508ZM72.9998 30.3807C75.9418 29.441 76.5399 25.5415 74.0149 23.7632L62.0556 15.3407C59.7866 13.7427 56.6288 15.0872 56.208 17.8304L54.2334 30.7035C53.8126 33.4467 56.4222 35.6758 59.0659 34.8314L72.9998 30.3807Z" fill="black"/>
<path d="M80.3059 31.5005C77.7809 29.7222 78.379 25.8227 81.321 24.883L95.2549 20.4323C97.8986 19.5879 100.508 21.817 100.087 24.5602L98.1128 37.4333C97.692 40.1765 94.5342 41.5209 92.2652 39.9229L80.3059 31.5005Z" fill="#FFBDBD"/>
<path fill-rule="evenodd" clip-rule="evenodd" d="M95.8236 22.2129L81.8897 26.6635C80.4187 27.1334 80.1196 29.0831 81.3822 29.9723L93.3414 38.3947C94.476 39.1937 96.0549 38.5215 96.2652 37.1499L98.2399 24.2768C98.4503 22.9052 97.1454 21.7906 95.8236 22.2129ZM81.321 24.883C78.379 25.8227 77.7809 29.7222 80.3059 31.5005L92.2652 39.9229C94.5342 41.5209 97.692 40.1765 98.1128 37.4333L100.087 24.5602C100.508 21.817 97.8986 19.5879 95.2549 20.4323L81.321 24.883Z" fill="black"/>
<path d="M84.3901 28.2686C83.8031 32.095 80.2254 34.7211 76.399 34.1342C72.5726 33.5473 69.9465 29.9696 70.5335 26.1432C71.1204 22.3168 74.6981 19.6906 78.5245 20.2776C82.3509 20.8645 84.977 24.4422 84.3901 28.2686Z" fill="#FFBDBD"/>
<path fill-rule="evenodd" clip-rule="evenodd" d="M76.6824 32.2867C79.4885 32.7171 82.1121 30.7913 82.5425 27.9852C82.9729 25.1792 81.0471 22.5555 78.2411 22.1251C75.4351 21.6947 72.8114 23.6205 72.381 26.4266C71.9506 29.2326 73.8764 31.8562 76.6824 32.2867ZM76.399 34.1342C80.2254 34.7211 83.8031 32.095 84.3901 28.2686C84.977 24.4422 82.3509 20.8645 78.5245 20.2776C74.6981 19.6906 71.1204 22.3168 70.5335 26.1432C69.9465 29.9696 72.5726 33.5473 76.399 34.1342Z" fill="black"/>
<defs>
<filter id="filter0_d_467_102" x="0" y="0" width="116" height="116" filterUnits="userSpaceOnUse" color-interpolation-filters="sRGB">
<feFlood flood-opacity="0" result="BackgroundImageFix"/>
<feColorMatrix in="SourceAlpha" type="matrix" values="0 0 0 0 0 0 0 0 0 0 0 0 0 0 0 0 0 0 127 0" result="hardAlpha"/>
<feOffset dx="-4" dy="4"/>
<feGaussianBlur stdDeviation="4"/>
<feComposite in2="hardAlpha" operator="out"/>
<feColorMatrix type="matrix" values="0 0 0 0 0.823529 0 0 0 0 0.705882 0 0 0 0 0.564706 0 0 0 0.25 0"/>
<feBlend mode="normal" in2="BackgroundImageFix" result="effect1_dropShadow_467_102"/>
<feBlend mode="normal" in="SourceGraphic" in2="effect1_dropShadow_467_102" result="shape"/>
</filter>
<filter id="filter1_f_467_102" x="22.9536" y="53.6689" width="20.1494" height="20.1494" filterUnits="userSpaceOnUse" color-interpolation-filters="sRGB">
<feFlood flood-opacity="0" result="BackgroundImageFix"/>
<feBlend mode="normal" in="SourceGraphic" in2="BackgroundImageFix" result="shape"/>
<feGaussianBlur stdDeviation="2" result="effect1_foregroundBlur_467_102"/>
</filter>
<filter id="filter2_f_467_102" x="80.8975" y="53.6689" width="20.1494" height="20.1494" filterUnits="userSpaceOnUse" color-interpolation-filters="sRGB">
<feFlood flood-opacity="0" result="BackgroundImageFix"/>
<feBlend mode="normal" in="SourceGraphic" in2="BackgroundImageFix" result="shape"/>
<feGaussianBlur stdDeviation="2" result="effect1_foregroundBlur_467_102"/>
</filter>
</defs>
</svg>
