<svg width="116" height="116" viewBox="0 0 116 116" fill="none" xmlns="http://www.w3.org/2000/svg">
<path d="M112 54C112 81.6142 89.6142 104 62 104C34.3858 104 12 81.6142 12 54C12 26.3858 34.3858 4 62 4C89.6142 4 112 26.3858 112 54Z" fill="white"/>
<g filter="url(#filter0_d_467_83)">
<path fill-rule="evenodd" clip-rule="evenodd" d="M62 101.196C88.0658 101.196 109.196 80.0658 109.196 54C109.196 27.9342 88.0658 6.80374 62 6.80374C35.9342 6.80374 14.8037 27.9342 14.8037 54C14.8037 80.0658 35.9342 101.196 62 101.196ZM62 104C89.6142 104 112 81.6142 112 54C112 26.3858 89.6142 4 62 4C34.3858 4 12 26.3858 12 54C12 81.6142 34.3858 104 62 104Z" fill="black"/>
</g>
<path d="M52.1866 62.878C52.1866 64.4264 50.9313 65.6817 49.3828 65.6817C47.8344 65.6817 46.5791 64.4264 46.5791 62.878C46.5791 61.3295 47.8344 60.0742 49.3828 60.0742C50.9313 60.0742 52.1866 61.3295 52.1866 62.878Z" fill="black"/>
<path d="M78.355 62.878C78.355 64.4264 77.0998 65.6817 75.5513 65.6817C74.0028 65.6817 72.7476 64.4264 72.7476 62.878C72.7476 61.3295 74.0028 60.0742 75.5513 60.0742C77.0998 60.0742 78.355 61.3295 78.355 62.878Z" fill="black"/>
<path fill-rule="evenodd" clip-rule="evenodd" d="M50.571 77.1924C50.7477 77.0042 50.9943 76.8975 51.2525 76.8975H72.7478C73.2639 76.8975 73.6824 77.3159 73.6824 77.832C73.6824 79.5963 73.12 82.3674 71.4215 84.7235C69.6886 87.1273 66.8051 89.047 62.3258 89.047C57.8609 89.047 54.8812 87.1947 53.0118 84.8381C51.1729 82.52 50.438 79.7573 50.3197 77.8911C50.3034 77.6335 50.3944 77.3806 50.571 77.1924ZM52.3063 78.7666C52.5651 80.2423 53.2201 82.0931 54.4761 83.6765C56.0047 85.6034 58.4531 87.1778 62.3258 87.1778C66.1841 87.1778 68.5116 85.5636 69.9053 83.6304C71.057 82.0327 71.592 80.1826 71.7559 78.7666H52.3063Z" fill="black"/>
<path d="M26.6447 18.6447C17.2678 28.0215 12 40.7392 12 54L28.8224 54L31.1589 40.9159L34.4299 54L62 54L90.5047 54L92.3738 49.3271L94.7103 54L112 54C112 40.7392 106.732 28.0215 97.3553 18.6447C87.9785 9.26784 75.2608 4 62 4C48.7392 4 36.0215 9.26784 26.6447 18.6447Z" fill="#474747"/>
<path fill-rule="evenodd" clip-rule="evenodd" d="M94.7103 54L112 54C112 53.3756 111.988 52.7525 111.965 52.1308C111.495 39.549 106.291 27.58 97.3553 18.6447C87.9785 9.26784 75.2608 4 62 4C48.7392 4 36.0215 9.26784 26.6447 18.6447C17.7093 27.58 12.5052 39.549 12.0349 52.1308C12.0117 52.7525 12 53.3756 12 54L28.8224 54L31.1589 40.9159L34.4299 54L90.5047 54L92.3738 49.3271L94.7103 54ZM89.2392 52.1308L90.6384 48.6329C90.9117 47.9495 91.5607 47.4901 92.2962 47.4596C93.0316 47.429 93.7165 47.8328 94.0457 48.4912L95.8655 52.1308L110.095 52.1308C109.625 40.0449 104.618 28.5511 96.0336 19.9664C87.0074 10.9401 74.7651 5.86916 62 5.86916C49.2349 5.86916 36.9926 10.9401 27.9664 19.9664C19.3816 28.5511 14.3747 40.0449 13.9054 52.1308L27.2575 52.1308L29.3188 40.5873C29.4738 39.7195 30.2141 39.0779 31.0951 39.0478C31.9761 39.0177 32.7584 39.6073 32.9722 40.4626L35.8893 52.1308L89.2392 52.1308Z" fill="black"/>
<defs>
<filter id="filter0_d_467_83" x="0" y="0" width="116" height="116" filterUnits="userSpaceOnUse" color-interpolation-filters="sRGB">
<feFlood flood-opacity="0" result="BackgroundImageFix"/>
<feColorMatrix in="SourceAlpha" type="matrix" values="0 0 0 0 0 0 0 0 0 0 0 0 0 0 0 0 0 0 127 0" result="hardAlpha"/>
<feOffset dx="-4" dy="4"/>
<feGaussianBlur stdDeviation="4"/>
<feComposite in2="hardAlpha" operator="out"/>
<feColorMatrix type="matrix" values="0 0 0 0 0.823529 0 0 0 0 0.705882 0 0 0 0 0.564706 0 0 0 0.25 0"/>
<feBlend mode="normal" in2="BackgroundImageFix" result="effect1_dropShadow_467_83"/>
<feBlend mode="normal" in="SourceGraphic" in2="effect1_dropShadow_467_83" result="shape"/>
</filter>
</defs>
</svg>
