<svg width="116" height="116" viewBox="0 0 116 116" fill="none" xmlns="http://www.w3.org/2000/svg">
<path d="M112 54C112 81.6142 89.6142 104 62 104C34.3858 104 12 81.6142 12 54C12 26.3858 34.3858 4 62 4C89.6142 4 112 26.3858 112 54Z" fill="white"/>
<g filter="url(#filter0_d_467_73)">
<path fill-rule="evenodd" clip-rule="evenodd" d="M62 101.196C88.0658 101.196 109.196 80.0658 109.196 54C109.196 27.9342 88.0658 6.80374 62 6.80374C35.9342 6.80374 14.8037 27.9342 14.8037 54C14.8037 80.0658 35.9342 101.196 62 101.196ZM62 104C89.6142 104 112 81.6142 112 54C112 26.3858 89.6142 4 62 4C34.3858 4 12 26.3858 12 54C12 81.6142 34.3858 104 62 104Z" fill="black"/>
</g>
<path d="M52.1871 50.7285C52.1871 52.277 50.9318 53.5323 49.3833 53.5323C47.8349 53.5323 46.5796 52.277 46.5796 50.7285C46.5796 49.1801 47.8349 47.9248 49.3833 47.9248C50.9318 47.9248 52.1871 49.1801 52.1871 50.7285Z" fill="black"/>
<path d="M78.355 50.7285C78.355 52.277 77.0998 53.5323 75.5513 53.5323C74.0028 53.5323 72.7476 52.277 72.7476 50.7285C72.7476 49.1801 74.0028 47.9248 75.5513 47.9248C77.0998 47.9248 78.355 49.1801 78.355 50.7285Z" fill="black"/>
<path fill-rule="evenodd" clip-rule="evenodd" d="M68.0117 73.7549C68.1985 74.2361 67.9598 74.7776 67.4786 74.9643C62.8321 76.7676 58.2608 75.7271 56.485 74.949C56.0123 74.7419 55.7969 74.1907 56.0041 73.718C56.2112 73.2452 56.7624 73.0299 57.2352 73.237C58.6786 73.8695 62.7262 74.8037 66.8024 73.2218C67.2835 73.035 67.825 73.2737 68.0117 73.7549Z" fill="black"/>
<path fill-rule="evenodd" clip-rule="evenodd" d="M75.9733 67.0763C75.7193 68.3414 74.4877 69.161 73.2226 68.9069C69.9322 68.2461 60.8309 67.2856 51.6619 68.9166C50.3915 69.1425 49.1784 68.2958 48.9524 67.0254C48.7264 65.755 49.5731 64.5419 50.8436 64.3159C60.706 62.5616 70.4095 63.5758 74.1427 64.3255C75.4078 64.5796 76.2274 65.8111 75.9733 67.0763Z" fill="black"/>
<path d="M23.9381 42.2861C22.6842 41.9518 21.9317 40.6612 22.3425 39.4302C24.1217 34.0986 27.0584 29.2152 30.9532 25.1361C34.8479 21.0569 39.5902 17.8974 44.8338 15.8737C46.0446 15.4064 47.3685 16.0984 47.7605 17.3355C48.1525 18.5727 47.4635 19.8856 46.2569 20.3633C41.7649 22.1417 37.7013 24.8739 34.3523 28.3815C31.0033 31.8891 28.4619 36.0747 26.8932 40.6441C26.4718 41.8716 25.1921 42.6205 23.9381 42.2861Z" fill="#C4C4C4" fill-opacity="0.4"/>
<defs>
<filter id="filter0_d_467_73" x="0" y="0" width="116" height="116" filterUnits="userSpaceOnUse" color-interpolation-filters="sRGB">
<feFlood flood-opacity="0" result="BackgroundImageFix"/>
<feColorMatrix in="SourceAlpha" type="matrix" values="0 0 0 0 0 0 0 0 0 0 0 0 0 0 0 0 0 0 127 0" result="hardAlpha"/>
<feOffset dx="-4" dy="4"/>
<feGaussianBlur stdDeviation="4"/>
<feComposite in2="hardAlpha" operator="out"/>
<feColorMatrix type="matrix" values="0 0 0 0 0.823529 0 0 0 0 0.705882 0 0 0 0 0.564706 0 0 0 0.25 0"/>
<feBlend mode="normal" in2="BackgroundImageFix" result="effect1_dropShadow_467_73"/>
<feBlend mode="normal" in="SourceGraphic" in2="effect1_dropShadow_467_73" result="shape"/>
</filter>
</defs>
</svg>
